<svg version="1.1" viewBox="0.0 0.0 960.0 540.0" fill="none" stroke="none" stroke-linecap="square" stroke-miterlimit="10" xmlns:xlink="http://www.w3.org/1999/xlink" xmlns="http://www.w3.org/2000/svg"><clipPath id="g2d0c9b5325f_0_95.0"><path d="m0 0l960.0 0l0 540.0l-960.0 0l0 -540.0z" clip-rule="nonzero"/></clipPath><g clip-path="url(#g2d0c9b5325f_0_95.0)"><path fill="#000000" d="m0 0l960.0 0l0 540.0l-960.0 0z" fill-rule="evenodd"/><path fill="#000000" fill-opacity="0.0" d="m32.725285 78.1706l894.5512 0l0 215.49606l-894.5512 0z" fill-rule="evenodd"/><path fill="#ffffff" d="m109.68998 268.02667l-15.875 -48.53125l11.640625 0l13.796875 42.984375l-5.828125 0l14.421875 -42.984375l10.406242 0l13.859375 42.984375l-5.609375 0l14.140625 -42.984375l10.75 0l-15.875 48.53125l-12.0625 0l-12.28125 -37.71875l3.1875 0l-12.609367 37.71875l-12.0625 0zm101.21354 -48.53125l11.234375 0l0 48.53125l-11.234375 0l0 -48.53125zm-22.046875 48.53125l-11.234375 0l0 -48.53125l11.234375 0l0 48.53125zm22.875 -19.890625l-23.703125 0l0 -9.5l23.703125 0l0 9.5zm33.9702 19.890625l0 -19.828125l2.5625 6.796875l-21.34375 -35.5l11.921875 0l16.359375 27.25l-6.859375 0l16.421875 -27.25l11.03125 0l-21.359375 35.5l2.5 -6.796875l0 19.828125l-11.234375 0zm54.423096 0l0 -48.53125l11.234375 0l0 48.53125l-11.234375 0zm38.69275 0.828125q-5.828125 0 -11.171875 -1.546875q-5.328125 -1.5625 -8.59375 -4.0625l3.8125 -8.453125q3.125 2.21875 7.390625 3.640625q4.265625 1.40625 8.625 1.40625q3.328125 0 5.375 -0.65625q2.046875 -0.65625 3.015625 -1.828125q0.96875 -1.1875 0.96875 -2.703125q0 -1.953125 -1.53125 -3.09375q-1.515625 -1.140625 -4.015625 -1.859375q-2.484375 -0.734375 -5.5 -1.390625q-3.015625 -0.65625 -6.046875 -1.625q-3.015625 -0.984375 -5.515625 -2.5q-2.484375 -1.53125 -4.046875 -4.015625q-1.5625 -2.5 -1.5625 -6.390625q0 -4.15625 2.25 -7.578125q2.265625 -3.4375 6.796875 -5.484375q4.546875 -2.046875 11.40625 -2.046875q4.578125 0 9.015625 1.078125q4.4375 1.0625 7.828125 3.21875l-3.453125 8.53125q-3.40625 -1.953125 -6.8125 -2.875q-3.390625 -0.9375 -6.640625 -0.9375q-3.265625 0 -5.34375 0.765625q-2.078125 0.75 -2.984375 1.96875q-0.890625 1.21875 -0.890625 2.8125q0 1.859375 1.515625 3.015625q1.53125 1.140625 4.015625 1.84375q2.5 0.6875 5.515625 1.375q3.015625 0.6875 6.03125 1.59375q3.015625 0.90625 5.515625 2.4375q2.5 1.515625 4.0625 4.015625q1.5625 2.484375 1.5625 6.296875q0 4.09375 -2.296875 7.5q-2.28125 3.390625 -6.828125 5.46875q-4.546875 2.078125 -11.46875 2.078125zm57.96051 -0.828125l0 -39.375l-15.53125 0l0 -9.15625l42.28125 0l0 9.15625l-15.53125 0l0 39.375l-11.21875 0zm66.06351 -48.53125l11.234375 0l0 48.53125l-11.234375 0l0 -48.53125zm-22.046875 48.53125l-11.234375 0l0 -48.53125l11.234375 0l0 48.53125zm22.875 -19.890625l-23.703125 0l0 -9.5l23.703125 0l0 9.5zm32.23584 -9.09375l23.37503 0l0 8.734375l-23.37503 0l0 -8.734375zm0.84375 19.96875l26.40628 0l0 9.015625l-37.578156 0l0 -48.53125l36.671906 0l0 9.015625l-25.50003 0l0 30.5zm54.96707 9.015625l0 -48.53125l22.046875 0q7.90625 0 13.9375 3.015625q6.03125 3.015625 9.421875 8.421875q3.40625 5.40625 3.40625 12.828125q0 7.34375 -3.40625 12.796875q-3.390625 5.4375 -9.421875 8.453125q-6.03125 3.015625 -13.9375 3.015625l-22.046875 0zm11.234375 -9.21875l10.265625 0q4.84375 0 8.40625 -1.828125q3.578125 -1.84375 5.546875 -5.234375q1.984375 -3.40625 1.984375 -7.984375q0 -4.640625 -1.984375 -8.0q-1.96875 -3.375 -5.546875 -5.203125q-3.5625 -1.84375 -8.40625 -1.84375l-10.265625 0l0 30.09375zm69.608765 10.046875q-5.75 0 -10.640625 -1.859375q-4.890625 -1.875 -8.46875 -5.265625q-3.5625 -3.40625 -5.546875 -7.984375q-1.96875 -4.578125 -1.96875 -9.984375q0 -5.40625 1.96875 -9.984375q1.984375 -4.578125 5.578125 -7.96875q3.609375 -3.40625 8.46875 -5.265625q4.859375 -1.875 10.53125 -1.875q5.765625 0 10.578125 1.875q4.8125 1.859375 8.375 5.265625q3.578125 3.390625 5.59375 7.9375q2.015625 4.546875 2.015625 10.015625q0 5.40625 -2.015625 10.015625q-2.015625 4.609375 -5.59375 7.984375q-3.5625 3.359375 -8.375 5.234375q-4.8125 1.859375 -10.5 1.859375zm-0.078125 -9.5625q3.265625 0 6.0 -1.109375q2.734375 -1.109375 4.8125 -3.1875q2.09375 -2.078125 3.234375 -4.921875q1.140625 -2.84375 1.140625 -6.3125q0 -3.46875 -1.140625 -6.3125q-1.140625 -2.84375 -3.1875 -4.921875q-2.046875 -2.078125 -4.828125 -3.1875q-2.765625 -1.109375 -6.03125 -1.109375q-3.25 0 -6.0 1.109375q-2.734375 1.109375 -4.8125 3.1875q-2.078125 2.078125 -3.21875 4.921875q-1.140625 2.84375 -1.140625 6.3125q0 3.390625 1.140625 6.28125q1.140625 2.875 3.1875 4.953125q2.046875 2.078125 4.8125 3.1875q2.78125 1.109375 6.03125 1.109375zm35.01294 8.734375l0 -48.53125l9.296875 0l28.625 34.9375l-4.5 0l0 -34.9375l11.09375 0l0 48.53125l-9.21875 0l-28.703125 -34.9375l4.5 0l0 34.9375l-11.09375 0zm79.595215 0.828125q-5.75 0 -10.640625 -1.859375q-4.890625 -1.875 -8.46875 -5.265625q-3.5625 -3.40625 -5.546875 -7.984375q-1.96875 -4.578125 -1.96875 -9.984375q0 -5.40625 1.96875 -9.984375q1.984375 -4.578125 5.578125 -7.96875q3.609375 -3.40625 8.46875 -5.265625q4.859375 -1.875 10.53125 -1.875q5.765625 0 10.578125 1.875q4.8125 1.859375 8.375 5.265625q3.578125 3.390625 5.59375 7.9375q2.015625 4.546875 2.015625 10.015625q0 5.40625 -2.015625 10.015625q-2.015625 4.609375 -5.59375 7.984375q-3.5625 3.359375 -8.375 5.234375q-4.8125 1.859375 -10.5 1.859375zm-0.078125 -9.5625q3.265625 0 6.0 -1.109375q2.734375 -1.109375 4.8125 -3.1875q2.09375 -2.078125 3.234375 -4.921875q1.140625 -2.84375 1.140625 -6.3125q0 -3.46875 -1.140625 -6.3125q-1.140625 -2.84375 -3.1875 -4.921875q-2.046875 -2.078125 -4.828125 -3.1875q-2.765625 -1.109375 -6.03125 -1.109375q-3.25 0 -6.0 1.109375q-2.734375 1.109375 -4.8125 3.1875q-2.078125 2.078125 -3.21875 4.921875q-1.140625 2.84375 -1.140625 6.3125q0 3.390625 1.140625 6.28125q1.140625 2.875 3.1875 4.953125q2.046875 2.078125 4.8125 3.1875q2.78125 1.109375 6.03125 1.109375zm35.012817 8.734375l0 -48.53125l21.015625 0q6.515625 0 11.21875 2.125q4.71875 2.109375 7.28125 6.0625q2.578125 3.953125 2.578125 9.421875q0 5.40625 -2.578125 9.328125q-2.5625 3.921875 -7.28125 6.0q-4.703125 2.078125 -11.21875 2.078125l-14.765625 0l4.984375 -4.921875l0 18.4375l-11.234375 0zm30.859375 0l-12.140625 -17.609375l12.0 0l12.265625 17.609375l-12.125 0zm-19.625 -17.1875l-4.984375 -5.28125l14.140625 0q5.203125 0 7.765625 -2.25q2.5625 -2.25 2.5625 -6.203125q0 -4.015625 -2.5625 -6.234375q-2.5625 -2.21875 -7.765625 -2.21875l-14.140625 0l4.984375 -5.34375l0 27.53125zm48.671997 0.34375q0 -2.421875 0.796875 -4.296875q0.796875 -1.875 2.0 -3.328125q1.21875 -1.453125 2.609375 -2.703125q1.390625 -1.25 2.59375 -2.390625q1.21875 -1.15625 2.015625 -2.390625q0.796875 -1.25 0.796875 -2.78125q0 -2.5 -2.046875 -4.015625q-2.046875 -1.53125 -5.4375 -1.53125q-3.265625 0 -5.828125 1.359375q-2.5625 1.34375 -4.234375 3.765625l-8.375 -4.921875q2.765625 -4.21875 7.6875 -6.75q4.921875 -2.53125 11.921875 -2.53125q5.203125 0 9.15625 1.5q3.953125 1.484375 6.203125 4.328125q2.25 2.828125 2.25 7.0q0 2.703125 -0.828125 4.78125q-0.828125 2.078125 -2.15625 3.609375q-1.3125 1.515625 -2.8125 2.84375q-1.484375 1.3125 -2.796875 2.5625q-1.3125 1.25 -2.1875 2.640625q-0.859375 1.375 -0.859375 3.25l-10.46875 0zm5.265625 17.390625q-2.90625 0 -4.78125 -1.859375q-1.875 -1.875 -1.875 -4.4375q0 -2.640625 1.875 -4.40625q1.875 -1.765625 4.78125 -1.765625q2.984375 0 4.8125 1.765625q1.84375 1.765625 1.84375 4.40625q0 2.5625 -1.84375 4.4375q-1.828125 1.859375 -4.8125 1.859375z" fill-rule="nonzero"/></g></svg>